<svg xmlns="http://www.w3.org/2000/svg" xmlns:xlink="http://www.w3.org/1999/xlink" viewBox="0 0 512 454">
  <defs>
    <linearGradient id="linear-gradient" x1="329.76" y1="72.31" x2="393.05" y2="411.35" gradientUnits="userSpaceOnUse">
      <stop offset="0" stop-color="#fff"/>
      <stop offset="1" stop-color="#e6e6e6"/>
    </linearGradient>
    <linearGradient id="linear-gradient-2" x1="174.06" y1="77.5" x2="242.67" y2="445.09" xlink:href="#linear-gradient"/>
    <linearGradient id="linear-gradient-3" x1="181.93" y1="68.96" x2="22.72" y2="251.7" gradientUnits="userSpaceOnUse">
      <stop offset="0" stop-color="#4c0000"/>
      <stop offset="1" stop-color="red"/>
    </linearGradient>
    <linearGradient id="New_Gradient_Swatch_3" data-name="New Gradient Swatch 3" x1="244.85" y1="6.55" x2="475.95" y2="250.21" gradientUnits="userSpaceOnUse">
      <stop offset="0" stop-color="#c30000"/>
      <stop offset="1" stop-color="red"/>
    </linearGradient>
    <radialGradient id="radial-gradient" cx="187.97" cy="262.38" r="284.05" gradientTransform="translate(0 0.02)" gradientUnits="userSpaceOnUse">
      <stop offset="0" stop-color="#c30000"/>
      <stop offset="0.43" stop-color="red"/>
      <stop offset="1" stop-color="#8d0000"/>
    </radialGradient>
    <linearGradient id="linear-gradient-4" x1="293.88" y1="77.94" x2="334.05" y2="77.94" xlink:href="#linear-gradient"/>
    <linearGradient id="linear-gradient-5" x1="294.37" y1="25.17" x2="354.74" y2="25.17" xlink:href="#linear-gradient"/>
    <linearGradient id="linear-gradient-6" x1="333.8" y1="74.71" x2="354.87" y2="74.71" xlink:href="#linear-gradient"/>
    <linearGradient id="linear-gradient-7" x1="162.04" y1="311.65" x2="229.37" y2="426.14" gradientUnits="userSpaceOnUse">
      <stop offset="0" stop-color="#291600"/>
      <stop offset="0.27" stop-color="#4d2900"/>
      <stop offset="1" stop-color="#824600"/>
    </linearGradient>
  </defs>
  <g style="isolation: isolate">
    <g id="Layer_1" data-name="Layer 1">
      <g>
        <g style="opacity: 0.2;mix-blend-mode: multiply">
          <path d="M372.05,284.15,374.16,267S186.31,68,184.18,68,38.37,231.37,38.37,231.37,41.15,245.6,43,254.08L189,94.44S318,227.34,372.05,284.15Z" style="fill: #121212"/>
        </g>
        <path d="M376.2,272.9c1.46,1.33,3,2.83,4.25,4.12,2,2.15,26.93,23.83,44.14,26.92L414,347.59l0,.26s-.72,6.08-9.76,16.72c-7.69,9.06-42.39,51.91-58.16,71.4Z" style="fill: url(#linear-gradient)"/>
        <path d="M326.71,450.81a58.36,58.36,0,0,1-12.54-1.62c-27.51-6.17-67.78-15.4-75.75-17.23l-5.74-11.25L164.4,406.64l-12,6.11L87,396.53c-.42-.11-11-3.18-14.77-20.55C68.29,357.69,44.73,246.56,41.7,232.24,94.15,172.61,171.35,85.37,184.23,72.14c16.63,16.11,137.66,144,186.63,195.85L338.59,442.57l.08.53a6.15,6.15,0,0,1-1.46,4.49C335.36,449.7,331.73,450.81,326.71,450.81Z" style="fill: url(#linear-gradient-2)"/>
        <path d="M382.69,274.93c-3.12-3.35-8.53-7.91-8.53-7.91S186.31,68,184.18,68,38.37,231.37,38.37,231.37c2,5.43,26.32,132.16,34,154.63l.27.54c5.45,10.91,13.63,13,13.63,13L152.78,416l.19-.1.05.82,6,1.56-.28-5.32,6.07-3.1,64.73,13.34.16,11.58,6.47,1.34v-1.8l.15.3s46.26,10.83,77.17,17.56c16.81,3.67,20.7,1.69,27.63-5.24,14.11-14.1,51.29-62.45,70.49-87.07,3.54-4.54,4.53-8.79,5.42-11.82l11.37-46.83C413.47,301.23,385.82,278.27,382.69,274.93Zm-2.94,8.91c5.07,4.46,13.78,16,21.32,20.46l-40,80.8ZM191.84,87.65c16.68,17.18,47.43,49.42,81.44,85.24l-78.21,61.43ZM180.72,229.87,115.8,156.58c25.23-28.48,48.32-54.39,61.77-69.19Zm-9.61,10.66-117-14.11c16.34-18.56,34.54-39.18,52.16-59.09Zm-24,11.46,34.21,4.12,1.13,51.33-33.54-4.82Zm49.64,57.5-1.14-51.65,37.71,4.54.6,52.45Zm8.32-64.87,78.09-61.35c25.44,26.82,52.09,55,75.6,79.88ZM49,240.16l80.15,9.66L77.41,373.92C73.48,355.72,55.37,270.3,49,240.16ZM86.16,390l47.52-114,4.54,127.61L88.34,391.21A9.14,9.14,0,0,1,86.16,390Zm80.4,11.52c-2.88-.76-5.84.78-8.3,2.13l-5-94.58,74.92,12,1.28,93.37Zm82.91,27.38-1.62-140.49,75.62,156.79C300.43,441.28,267.43,432.62,249.47,428.87ZM334.41,435,252.25,264.67l111.17,13.4Zm74.31-89c-5.32,15.48-20.17,26.91-36.93,49.48L415.52,307c.84.33,1.67.63,2.48.9Z" style="fill: #121212"/>
        <path d="M38.37,231.37S182.05,68,184.18,68c0,0-.37-.68-4.17-.43a24.52,24.52,0,0,0-3.39.43,10.55,10.55,0,0,0-1.47,1L16,251.27,40,240.1l.21-.24C39,234.5,38.37,231.37,38.37,231.37Z" style="fill: url(#linear-gradient-3)"/>
        <path d="M506.59,190.45C495.67,179.28,332.68,9.42,328.88,5.38s-10-6.89-20.43-4.52-129.73,28-129.73,28c4.75,0,9.74,4.28,11.4,5.94S429.38,286.43,429.38,286.43s6.17,4.64,4.79,8.81a2.65,2.65,0,0,1,.2.22c3.57-5.23,74.13-89.81,74.13-89.81S517.52,201.61,506.59,190.45Z" style="fill: url(#New_Gradient_Swatch_3)"/>
        <path d="M16,251.27c-1.42,1.19-3.8,2.85-6.41.23S.28,240.34.28,240.34s-1.42-3.09,2.14-7.37S171.35,32.7,171.35,32.7a9.53,9.53,0,0,1,7.37-3.8c4.75,0,9.74,4.28,11.4,5.94S429.38,286.43,429.38,286.43s8.55,6.41,3.33,10.93-12.12,10.21-12.12,10.21-3.33,4-9-1.66C406.35,300.7,216.67,102.37,184.18,68c0,0-.37-.68-4.17-.43-3.56.24-4.58.79-4.58.79Z" style="fill: url(#radial-gradient)"/>
        <polygon points="294.37 28.21 293.88 86.15 333.8 127.66 334.05 28.58 294.37 28.21" style="fill: url(#linear-gradient-4)"/>
        <polygon points="354.74 21.76 316.03 21.88 294.37 28.21 334.05 28.58 354.74 21.76" style="fill: url(#linear-gradient-5)"/>
        <polygon points="354.74 21.76 334.05 28.58 333.8 127.66 354.87 116.46 354.74 21.76" style="fill: url(#linear-gradient-6)"/>
        <polygon points="228.16 321.08 153.24 309.04 158.52 408.66 160.88 412.35 229.63 428.39 228.16 321.08" style="fill: url(#linear-gradient-7)"/>
        <polygon points="146.68 309.36 159.04 418.29 164.58 413.11 160.12 308.13 146.68 309.36" style="fill: #121212"/>
        <g style="opacity: 0.73;mix-blend-mode: screen">
          <path d="M431.59,280C396.72,244.39,294.8,136.3,239.36,83.73c70,73.63,190,199.84,190,199.84a18.74,18.74,0,0,1,3,3C433.2,285.31,433.21,281.61,431.59,280Z" style="fill: #fff"/>
        </g>
      </g>
    </g>
  </g>
</svg>
